# xmcd
#
# Track frame offsets: 
#        150
#        11559
#        28201
#        48599
#        69533
#        84386
#        103918
#        118399
#        133487
#        144724
#        160537
#        174174
#        186143
#        203976
#        219231
#        238461
#        252715
#        269427
#        287489
#        300906
#
# Disc length: 4102 seconds
#
# Revision: 1
# Processed by: cddbd v1.4PL0 Copyright (c) Steve Scherf et al.
# Submitted via: ExactAudioCopy v0.90b4
#
DISCID=32100414
DTITLE=Randy Travis - Worship and Faith
DYEAR=2003
DGENRE=Gospel
TTITLE0=He's My Rock My Sword My Shield
TTITLE1=Farther Along
TTITLE2=How Great Thou Art
TTITLE3=Just A Closer Walk With Thee
TTITLE4=Shall We Gather At THe River
TTITLE5=You Are Worthy Of My Praise
TTITLE6=Love Lifted Me
TTITLE7=Softly And Tenderly
TTITLE8=Sweet By and By
TTITLE9=Blessed Assurance
TTITLE10=I'll Fly Away
TTITLE11=Turn Your Radio On
TTITLE12=Open The Eyes Of My Heart
TTITLE13=In The Garden
TTITLE14=Above All
TTITLE15=Will The Circle Be Unbroken?
TTITLE16=We Fall Down
TTITLE17=Peace In The Valley
TTITLE18=The Unclouded Day
TTITLE19=Room At The Cross For You
EXTD=
EXTT0=
EXTT1=
EXTT2=
EXTT3=
EXTT4=
EXTT5=
EXTT6=
EXTT7=
EXTT8=
EXTT9=
EXTT10=
EXTT11=
EXTT12=
EXTT13=
EXTT14=
EXTT15=
EXTT16=
EXTT17=
EXTT18=
EXTT19=
PLAYORDER=
